<svg width="140" height="140" viewBox="0 0 140 140" fill="none" xmlns="http://www.w3.org/2000/svg">
<path d="M96 20C109.255 20 120 30.7452 120 44V45C120 58.2548 109.255 69 96 69H54.5L47.5 76L40.1992 68.6992C28.7506 66.8775 20 56.9614 20 45V44C20 30.7452 30.7452 20 44 20H96Z" fill="#F3F4F6"/>
<path d="M101.5 74C111.717 74 120 82.2827 120 92.5C120 102.548 111.99 110.724 102.007 110.992L94 119L86 111H74.5C64.2827 111 56 102.717 56 92.5C56 82.2827 64.2827 74 74.5 74H101.5Z" fill="#F3F4F6"/>
<circle cx="58" cy="45" r="3" fill="#E5E7EB"/>
<circle cx="70" cy="45" r="3" fill="#E5E7EB"/>
<circle cx="82" cy="45" r="3" fill="#E5E7EB"/>
<circle cx="76" cy="93" r="3" fill="#E5E7EB"/>
<circle cx="88" cy="93" r="3" fill="#E5E7EB"/>
<circle cx="100" cy="93" r="3" fill="#E5E7EB"/>
</svg>
